<?xml version="1.0" ?><!DOCTYPE svg  PUBLIC '-//W3C//DTD SVG 1.1//EN'  'http://www.w3.org/Graphics/SVG/1.1/DTD/svg11.dtd'><svg enable-background="new 0 0 128 128" id="Слой_1" version="1.1" viewBox="0 0 128 128" xml:space="preserve" xmlns="http://www.w3.org/2000/svg" xmlns:xlink="http://www.w3.org/1999/xlink"><g><g><path d="M108,14v100c0,5.5-4.5,10-10,10H24c-5.5,0-10-4.5-10-10V14c0-5.5,4.5-10,10-10h74C103.5,4,108,8.5,108,14z    " fill="#F0F1EE"/></g><g><circle cx="54.5" cy="43.5" fill="#FFFFFF" r="27.5"/></g><g><path d="M54.5,72.2c-15.9,0-28.8-12.9-28.8-28.8s12.9-28.8,28.8-28.8s28.8,12.9,28.8,28.8S70.4,72.2,54.5,72.2z     M54.5,17.2C40,17.2,28.2,29,28.2,43.5S40,69.8,54.5,69.8S80.8,58,80.8,43.5S69,17.2,54.5,17.2z" fill="#502D4B"/></g><g><path d="M73.7,36.8H62c-0.4,0-0.8-0.4-0.8-0.8V24.3c0-0.4-0.4-0.8-0.8-0.8H48.6c-0.4,0-0.8,0.4-0.8,0.8V36    c0,0.4-0.4,0.8-0.8,0.8H35.3c-0.4,0-0.8,0.4-0.8,0.8v11.7c0,0.4,0.4,0.8,0.8,0.8H47c0.4,0,0.8,0.4,0.8,0.8v11.7    c0,0.4,0.4,0.8,0.8,0.8h11.7c0.4,0,0.8-0.4,0.8-0.8V51c0-0.4,0.4-0.8,0.8-0.8h11.7c0.4,0,0.8-0.4,0.8-0.8V37.6    C74.5,37.2,74.1,36.8,73.7,36.8z" fill="#E074A3"/></g><g><path d="M60.4,64.8H48.6c-1.1,0-2-0.9-2-2V51.4H35.3c-1.1,0-2-0.9-2-2V37.6c0-1.1,0.9-2,2-2h11.3V24.3    c0-1.1,0.9-2,2-2h11.7c1.1,0,2,0.9,2,2v11.3h11.3c1.1,0,2,0.9,2,2v11.7c0,1.1-0.9,2-2,2H62.4v11.3C62.4,63.8,61.5,64.8,60.4,64.8z     M49.1,62.2h10.8V51c0-1.1,0.9-2.1,2.1-2.1h11.3V38.1H62c-1.1,0-2.1-0.9-2.1-2.1V24.8H49.1V36c0,1.1-0.9,2.1-2.1,2.1H35.8v10.8H47    c1.1,0,2.1,0.9,2.1,2.1V62.2z" fill="#502D4B"/></g><g><path d="M93,34h15V14c0-5.5-4.5-10-10-10h-5V34z" fill="#61BDA7"/></g><g><path d="M108,35.2H93c-0.7,0-1.2-0.6-1.2-1.2V4c0-0.7,0.6-1.2,1.2-1.2h5c6.2,0,11.2,5,11.2,11.2v20    C109.2,34.7,108.7,35.2,108,35.2z M94.2,32.8h12.5V14c0-4.8-3.9-8.8-8.8-8.8h-3.8V32.8z" fill="#502D4B"/></g><path d="M108,34V21.5c-2.7-2.2-6.2-3.5-10-3.5h-2v16H108z" fill="#502D4B" opacity="0.2"/><g><path d="M93,54h15V34c0-5.5-4.5-10-10-10h-5V54z" fill="#B573A4"/></g><g><path d="M108,55.2H93c-0.7,0-1.2-0.6-1.2-1.2V24c0-0.7,0.6-1.2,1.2-1.2h5c6.2,0,11.2,5,11.2,11.2v20    C109.2,54.7,108.7,55.2,108,55.2z M94.2,52.8h12.5V34c0-4.8-3.9-8.8-8.8-8.8h-3.8V52.8z" fill="#502D4B"/></g><path d="M108,41.5c-2.7-2.2-6.2-3.5-10-3.5h-2v16h12V41.5z" fill="#502D4B" opacity="0.2"/><g><path d="M93,69h15V54c0-5.5-4.5-10-10-10h-5V69z" fill="#90D3EA"/></g><polygon fill="#502D4B" opacity="0.2" points="108,66 96,66 96,4 93,4 93,24 93,34 93,44 93,54 93,69 108,69  "/><g><path d="M108,70.2H93c-0.7,0-1.2-0.6-1.2-1.2V44c0-0.7,0.6-1.2,1.2-1.2h5c6.2,0,11.2,5,11.2,11.2v15    C109.2,69.7,108.7,70.2,108,70.2z M94.2,67.8h12.5V54c0-4.8-3.9-8.8-8.8-8.8h-3.8V67.8z" fill="#502D4B"/></g><g><path d="M98,125.2H24c-6.2,0-11.2-5-11.2-11.2V14c0-6.2,5-11.2,11.2-11.2h74c6.2,0,11.2,5,11.2,11.2v100    C109.2,120.2,104.2,125.2,98,125.2z M24,5.2c-4.8,0-8.8,3.9-8.8,8.8v100c0,4.8,3.9,8.8,8.8,8.8h74c4.8,0,8.8-3.9,8.8-8.8V14    c0-4.8-3.9-8.8-8.8-8.8H24z" fill="#502D4B"/></g><g><path d="M82,105.2H28c-0.7,0-1.2-0.6-1.2-1.2s0.6-1.2,1.2-1.2h54c0.7,0,1.2,0.6,1.2,1.2S82.7,105.2,82,105.2z" fill="#502D4B"/></g><g><path d="M82,95.2H28c-0.7,0-1.2-0.6-1.2-1.2s0.6-1.2,1.2-1.2h54c0.7,0,1.2,0.6,1.2,1.2S82.7,95.2,82,95.2z" fill="#502D4B"/></g><g><path d="M82,85.2H28c-0.7,0-1.2-0.6-1.2-1.2s0.6-1.2,1.2-1.2h54c0.7,0,1.2,0.6,1.2,1.2S82.7,85.2,82,85.2z" fill="#502D4B"/></g></g></svg>