<?xml version="1.0" ?><!DOCTYPE svg  PUBLIC '-//W3C//DTD SVG 1.1//EN'  'http://www.w3.org/Graphics/SVG/1.1/DTD/svg11.dtd'><svg enable-background="new 0 0 128 128" id="Слой_1" version="1.1" viewBox="0 0 128 128" xml:space="preserve" xmlns="http://www.w3.org/2000/svg" xmlns:xlink="http://www.w3.org/1999/xlink">
    <g><g><path d="M94,124H34c-5.5,0-10-4.5-10-10V14c0-5.5,4.5-10,10-10h60c5.5,0,10,4.5,10,10v100    C104,119.5,99.5,124,94,124z" fill="#90D3EA"/></g>
        <g><path d="M89,109H39c-2.8,0-5-2.2-5-5V54c0-2.8,2.2-5,5-5h50c2.8,0,5,2.2,5,5v50C94,106.8,91.8,109,89,109z" fill="#FFFFFF"/></g>
        <g><path d="M89,110.2H39c-3.4,0-6.2-2.8-6.2-6.2V54c0-3.4,2.8-6.2,6.2-6.2h50c3.4,0,6.2,2.8,6.2,6.2v50    C95.2,107.4,92.4,110.2,89,110.2z M39,50.2c-2.1,0-3.8,1.7-3.8,3.8v50c0,2.1,1.7,3.8,3.8,3.8h50c2.1,0,3.8-1.7,3.8-3.8V54    c0-2.1-1.7-3.8-3.8-3.8H39z" fill="#502D4B"/></g>
        <path d="M94,4H74c5.5,0,10,4.5,10,10v100c0,5.5-4.5,10-10,10h20c5.5,0,10-4.5,10-10V14   C104,8.5,99.5,4,94,4z" fill="#502D4B" opacity="0.2"/>
        <g><path d="M84,65.2H44c-0.7,0-1.2-0.6-1.2-1.2s0.6-1.2,1.2-1.2h40c0.7,0,1.2,0.6,1.2,1.2S84.7,65.2,84,65.2z" fill="#502D4B"/></g>
        <g><path d="M84,75.2H44c-0.7,0-1.2-0.6-1.2-1.2s0.6-1.2,1.2-1.2h40c0.7,0,1.2,0.6,1.2,1.2S84.7,75.2,84,75.2z" fill="#502D4B"/></g>
        <g><path d="M84,85.2H44c-0.7,0-1.2-0.6-1.2-1.2s0.6-1.2,1.2-1.2h40c0.7,0,1.2,0.6,1.2,1.2S84.7,85.2,84,85.2z" fill="#502D4B"/></g>
        <g><path d="M84,95.2H44c-0.7,0-1.2-0.6-1.2-1.2s0.6-1.2,1.2-1.2h40c0.7,0,1.2,0.6,1.2,1.2S84.7,95.2,84,95.2z" fill="#502D4B"/></g>
        <g><path d="M94,125.2H34c-6.2,0-11.2-5-11.2-11.2V14c0-6.2,5-11.2,11.2-11.2h60c6.2,0,11.2,5,11.2,11.2v100    C105.2,120.2,100.2,125.2,94,125.2z M34,5.2c-4.8,0-8.8,3.9-8.8,8.8v100c0,4.8,3.9,8.8,8.8,8.8h60c4.8,0,8.8-3.9,8.8-8.8V14    c0-4.8-3.9-8.8-8.8-8.8H34z" fill="#502D4B"/></g>
        <g><path d="M109.5,34h-91c-1.1,0-2-0.9-2-2V14c0-5.5,4.5-10,10-10h75c5.5,0,10,4.5,10,10v18    C111.5,33.1,110.6,34,109.5,34z" fill="#FFFFFF"/></g>
        <path d="M101.5,4h-20c5.5,0,10,4.5,10,10v18c0,1.1-0.9,2-2,2h20c1.1,0,2-0.9,2-2V14   C111.5,8.5,107,4,101.5,4z" fill="#502D4B" opacity="0.2"/><g>
            <path d="M109.5,35.2h-91c-1.8,0-3.2-1.5-3.2-3.2V14c0-6.2,5-11.2,11.2-11.2h75c6.2,0,11.2,5,11.2,11.2v18    C112.8,33.8,111.3,35.2,109.5,35.2z M26.5,5.2c-4.8,0-8.8,3.9-8.8,8.8v18c0,0.4,0.3,0.8,0.8,0.8h91c0.4,0,0.8-0.3,0.8-0.8V14    c0-4.8-3.9-8.8-8.8-8.8H26.5z" fill="#502D4B"/></g></g></svg>